<svg xmlns="http://www.w3.org/2000/svg" width="822" height="625"><path fill="none" d="M-1-1h824v627H-1z"/><image width="480" height="480" x="171" y="72.5"/><g text-anchor="middle"><g fill="#51acb6" font-family="'Comfortaa Bold Alt2'" font-size="72" font-weight="700"><path d="M411 305.75c10.07 0 19.767-2.052 29.09-5.968 8.952-3.73 16.97-9.137 23.87-16.037 6.9-6.9 12.308-14.732 16.038-23.87 3.916-9.137 5.967-18.834 5.967-29.09 0-10.257-2.051-19.954-5.967-29.278-3.73-8.95-9.138-16.783-16.038-23.683-6.9-6.9-14.918-12.308-23.87-16.037-9.323-3.916-19.02-5.967-29.09-5.967-10.256 0-19.953 2.05-29.277 5.967-8.951 3.73-16.97 9.137-23.87 16.037-6.9 6.9-12.308 14.732-16.037 23.683-3.916 9.324-5.781 19.021-5.781 29.277 0 10.257 1.865 19.954 5.78 29.091 3.73 9.138 9.138 16.97 16.038 23.87 6.9 6.9 14.919 12.307 23.87 16.037 9.324 3.916 19.02 5.967 29.277 5.967zm0-131.282c15.478 0 28.718 5.407 39.72 16.41 11.002 11.002 16.597 24.429 16.597 39.906 0 15.478-5.595 28.718-16.597 39.72-11.002 11.003-24.242 16.597-39.72 16.597-15.664 0-28.904-5.594-39.907-16.596-11.002-10.816-16.41-24.243-16.41-39.72 0-15.478 5.408-28.905 16.41-39.907 11.003-11.003 24.243-16.41 39.907-16.41zM233.534 374.822c-7.832-7.833-17.343-11.749-28.532-11.749s-20.699 3.916-28.531 11.749c-.933.932-1.679 1.864-2.61 2.797-.747-.933-1.68-1.865-2.425-2.797-8.019-7.833-17.53-11.749-28.718-11.749-11.189 0-20.7 3.916-28.532 11.749-7.832 8.018-11.748 17.529-11.748 28.718v55.944c0 2.61.746 4.662 2.611 6.526 1.865 1.865 4.103 2.798 6.713 2.798 2.424 0 4.662-.933 6.527-2.798 1.865-1.864 2.797-3.916 2.797-6.526V403.54c0-5.968 2.052-11.19 6.34-15.478 4.29-4.29 9.325-6.34 15.292-6.34 6.154 0 11.189 2.05 15.478 6.34 4.289 4.289 6.34 9.51 6.34 15.478v55.944c0 2.61.932 4.662 2.797 6.526 1.865 1.865 3.916 2.798 6.527 2.798 2.61 0 4.849-.933 6.527-2.798 1.865-1.864 2.797-3.916 2.797-6.526V403.54c0-3.917.932-7.646 2.984-11.003 1.865-3.356 4.475-5.967 7.832-7.832 3.357-2.051 7.086-2.984 11.002-2.984 5.968 0 11.189 2.052 15.292 6.34 4.289 4.29 6.526 9.511 6.526 15.479v55.944c0 2.61.746 4.662 2.611 6.526 1.865 1.865 4.103 2.798 6.713 2.798 2.425 0 4.662-.933 6.527-2.798 1.865-1.864 2.797-3.916 2.797-6.526V403.54c0-11.19-4.102-20.7-11.934-28.718zM359.5 380.975c-10.069-10.07-22.19-15.29-36.55-15.29-14.172 0-26.48 5.22-36.55 15.29-10.07 10.07-15.104 22.192-15.104 36.55 0 14.36 5.035 26.48 15.105 36.55 10.07 10.07 22.377 15.105 36.55 15.105 12.867 0 24.242-4.102 33.94-12.494v3.543c0 2.611.745 4.662 2.61 6.34 1.678 1.866 3.73 2.611 6.34 2.611 2.424 0 4.476-.745 6.34-2.61 1.679-1.679 2.611-3.73 2.611-6.34v-42.704c0-14.36-5.035-26.48-15.291-36.55zm-36.55 70.303c-9.323 0-17.342-3.17-23.869-9.883-6.713-6.527-9.883-14.545-9.883-23.87 0-9.323 3.17-17.342 9.883-23.869 6.527-6.713 14.546-10.07 23.87-10.07 9.324 0 17.342 3.357 23.87 10.07 6.713 6.527 10.07 14.546 10.07 23.87 0 9.324-3.357 17.342-10.07 23.869-6.528 6.713-14.546 9.883-23.87 9.883zM401.978 325.404c-1.865 1.865-2.611 4.103-2.611 6.714v101.818c0 6.713 1.119 12.68 3.543 17.902 2.238 5.221 5.594 9.324 9.883 12.308 4.29 2.983 9.138 4.289 14.546 4.289h.373c3.73 0 6.713-.746 9.137-2.611 2.238-1.678 3.543-3.916 3.543-6.713 0-2.611-.932-4.849-2.424-6.714-1.492-1.678-3.543-2.61-5.967-2.61h-4.662c-2.797 0-5.035-1.492-6.713-4.476-1.865-2.984-2.611-6.713-2.611-11.375V332.118c0-2.611-.933-4.849-2.61-6.714-1.866-1.678-4.103-2.61-6.714-2.61-2.797 0-5.035.932-6.713 2.61zM458.067 325.404c-1.864 1.865-2.61 4.103-2.61 6.714v101.818c0 6.713 1.118 12.68 3.543 17.902 2.237 5.221 5.594 9.324 9.883 12.308 4.29 2.983 9.138 4.289 14.546 4.289h.373c3.73 0 6.713-.746 9.137-2.611 2.238-1.678 3.543-3.916 3.543-6.713 0-2.611-.932-4.849-2.424-6.714-1.492-1.678-3.543-2.61-5.967-2.61h-4.662c-2.798 0-5.035-1.492-6.714-4.476-1.864-2.984-2.61-6.713-2.61-11.375V332.118c0-2.611-.933-4.849-2.611-6.714-1.865-1.678-4.103-2.61-6.713-2.61-2.798 0-5.035.932-6.714 2.61zM555.873 469.18c14.359 0 26.48-5.034 36.55-15.104 10.07-10.07 15.291-22.192 15.291-36.55 0-14.36-5.22-26.48-15.29-36.55-10.07-10.07-22.192-15.292-36.55-15.292-14.36 0-26.481 5.222-36.551 15.291-10.07 10.07-15.105 22.192-15.105 36.55 0 14.36 5.035 26.48 15.105 36.55 10.07 10.07 22.191 15.105 36.55 15.105zm0-85.594c9.324 0 17.343 3.357 24.056 9.884 6.527 6.713 9.883 14.732 9.883 24.056 0 9.324-3.356 17.342-9.883 23.869-6.713 6.713-14.732 9.883-24.056 9.883-9.324 0-17.343-3.17-23.87-9.883-6.713-6.527-9.883-14.545-9.883-23.87 0-9.323 3.17-17.342 9.884-24.055 6.526-6.527 14.545-9.884 23.87-9.884zM717.697 382.467c-9.697-11.189-22.005-16.783-36.55-16.783-9.697 0-18.462 2.238-26.107 6.713-7.832 4.476-13.8 10.63-18.089 18.462-4.289 7.832-6.34 16.783-6.34 26.667 0 9.696 2.051 18.648 6.527 26.48 4.475 7.832 10.629 13.986 18.461 18.461 7.832 4.476 16.597 6.713 26.48 6.713 13.427 0 24.616-4.102 33.567-12.494 1.492-1.492 2.237-3.17 2.237-5.035 0-2.424-1.305-4.662-3.543-6.713-1.492-1.119-3.17-1.678-4.848-1.678-2.238 0-4.662.932-6.9 2.61-5.221 4.476-12.121 6.527-20.513 6.527-6.527 0-12.307-1.492-17.342-4.475-5.035-2.984-8.951-7.086-11.749-12.308-2.797-5.221-4.102-11.375-4.102-18.088 0-10.443 2.984-19.021 8.95-25.362 5.968-6.34 13.614-9.697 23.31-9.697 4.663 0 8.765.933 12.495 2.425 3.73 1.491 7.086 3.916 10.256 7.272 1.865 2.238 4.29 3.357 7.273 3.357 1.492 0 2.984-.373 4.29-1.305 2.61-1.865 4.102-4.103 4.102-6.9 0-1.865-.746-3.357-1.865-4.849z"/></g></g></svg>